<svg xmlns="http://www.w3.org/2000/svg" width="120" height="120" fill="none"><rect width="120" height="120" fill="#0166A5" rx="20"/><g filter="url('#filter0_d_126_2')"><path fill="#fff" d="m88.188 71.486 8.039 4.177c1.03.536 1.03 2.065 0 2.6l-35.475 18.43a2.72 2.72 0 0 1-2.503 0l-35.474-18.43a1.4 1.4 0 0 1-.562-.536 1.5 1.5 0 0 1 0-1.527c.136-.23.33-.415.562-.537l8.044-4.177 24.923 12.947a8.14 8.14 0 0 0 7.518 0L88.183 71.48zm-29.939-49.18a2.72 2.72 0 0 1 2.503 0l35.475 18.425c.231.123.426.309.561.539a1.5 1.5 0 0 1 0 1.528c-.135.23-.33.416-.561.539l-35.475 18.42a2.72 2.72 0 0 1-2.503 0l-35.474-18.42a1.4 1.4 0 0 1-.566-.537 1.5 1.5 0 0 1 0-1.532c.137-.23.333-.416.566-.537z"/></g><g filter="url('#filter1_d_126_2')"><path fill="#6397C2" d="m88.186 54.02 8.039 4.177c1.031.536 1.031 2.065 0 2.6L60.75 79.224a2.72 2.72 0 0 1-2.503 0L22.774 60.798a1.4 1.4 0 0 1-.563-.537 1.5 1.5 0 0 1 0-1.527c.136-.23.33-.415.563-.537l8.043-4.177L55.74 66.967a8.14 8.14 0 0 0 7.518 0L88.182 54.02z"/></g><defs><filter id="filter0_d_126_2" width="76" height="76" x="22" y="22" color-interpolation-filters="sRGB" filterUnits="userSpaceOnUse"><feFlood flood-opacity="0" result="BackgroundImageFix"/><feColorMatrix in="SourceAlpha" result="hardAlpha" values="0 0 0 0 0 0 0 0 0 0 0 0 0 0 0 0 0 0 127 0"/><feOffset dx="1" dy="1"/><feComposite in2="hardAlpha" operator="out"/><feColorMatrix values="0 0 0 0 0 0 0 0 0 0 0 0 0 0 0 0 0 0 0.25 0"/><feBlend in2="BackgroundImageFix" result="effect1_dropShadow_126_2"/><feBlend in="SourceGraphic" in2="effect1_dropShadow_126_2" result="shape"/></filter><filter id="filter1_d_126_2" width="75.995" height="26.509" x="22.003" y="54.02" color-interpolation-filters="sRGB" filterUnits="userSpaceOnUse"><feFlood flood-opacity="0" result="BackgroundImageFix"/><feColorMatrix in="SourceAlpha" result="hardAlpha" values="0 0 0 0 0 0 0 0 0 0 0 0 0 0 0 0 0 0 127 0"/><feOffset dx="1" dy="1"/><feComposite in2="hardAlpha" operator="out"/><feColorMatrix values="0 0 0 0 0 0 0 0 0 0 0 0 0 0 0 0 0 0 0.25 0"/><feBlend in2="BackgroundImageFix" result="effect1_dropShadow_126_2"/><feBlend in="SourceGraphic" in2="effect1_dropShadow_126_2" result="shape"/></filter></defs></svg>