<svg width="300" height="120" viewBox="0 0 300 120" fill="none" xmlns="http://www.w3.org/2000/svg">
    <rect width="300" height="120" rx="20" fill="#0166A5" />
    <g filter="url(#filter0_d_114_41)">
        <path d="M155.688 57.25V59.2812C155.688 62.7396 155.208 65.8438 154.25 68.5938C153.312 71.3438 151.969 73.6875 150.219 75.625C148.49 77.5625 146.427 79.0521 144.031 80.0938C141.656 81.1146 139.021 81.625 136.125 81.625C133.229 81.625 130.583 81.1146 128.188 80.0938C125.792 79.0521 123.708 77.5625 121.938 75.625C120.188 73.6875 118.833 71.3438 117.875 68.5938C116.917 65.8438 116.438 62.7396 116.438 59.2812V57.25C116.438 53.7917 116.917 50.6875 117.875 47.9375C118.833 45.1667 120.177 42.8125 121.906 40.875C123.656 38.9375 125.729 37.4583 128.125 36.4375C130.521 35.3958 133.167 34.875 136.062 34.875C138.958 34.875 141.604 35.3958 144 36.4375C146.396 37.4583 148.458 38.9375 150.188 40.875C151.938 42.8125 153.292 45.1667 154.25 47.9375C155.208 50.6875 155.688 53.7917 155.688 57.25ZM145.406 59.2812V57.1875C145.406 54.875 145.198 52.8333 144.781 51.0625C144.365 49.2708 143.76 47.7708 142.969 46.5625C142.177 45.3542 141.198 44.4479 140.031 43.8438C138.865 43.2188 137.542 42.9062 136.062 42.9062C134.521 42.9062 133.177 43.2188 132.031 43.8438C130.885 44.4479 129.917 45.3542 129.125 46.5625C128.354 47.7708 127.76 49.2708 127.344 51.0625C126.948 52.8333 126.75 54.875 126.75 57.1875V59.2812C126.75 61.5729 126.948 63.6146 127.344 65.4062C127.76 67.1771 128.365 68.6771 129.156 69.9062C129.948 71.1354 130.917 72.0625 132.062 72.6875C133.229 73.3125 134.583 73.625 136.125 73.625C137.604 73.625 138.917 73.3125 140.062 72.6875C141.229 72.0625 142.208 71.1354 143 69.9062C143.792 68.6771 144.385 67.1771 144.781 65.4062C145.198 63.6146 145.406 61.5729 145.406 59.2812ZM191.625 73.125V81H168.656V73.125H191.625ZM172.125 35.5V81H161.938V35.5H172.125ZM211 35.5V81H200.844V35.5H211ZM224.844 35.5V43.4062H187.281V35.5H224.844ZM248.062 61.3438H236.375L236.312 54.5312H245.969C247.677 54.5312 249.062 54.3229 250.125 53.9062C251.208 53.4896 252 52.8854 252.5 52.0938C253 51.2812 253.25 50.2812 253.25 49.0938C253.25 47.7396 253 46.6458 252.5 45.8125C252 44.9792 251.208 44.375 250.125 44C249.062 43.6042 247.688 43.4062 246 43.4062H240.062V81H229.875V35.5H246C248.729 35.5 251.167 35.75 253.312 36.25C255.458 36.75 257.281 37.5208 258.781 38.5625C260.302 39.6042 261.458 40.9062 262.25 42.4688C263.042 44.0312 263.438 45.875 263.438 48C263.438 49.8542 263.021 51.5833 262.188 53.1875C261.375 54.7917 260.062 56.0938 258.25 57.0938C256.438 58.0938 254.01 58.6354 250.969 58.7188L248.062 61.3438ZM247.656 81H233.781L237.469 73.125H247.656C249.219 73.125 250.49 72.875 251.469 72.375C252.448 71.875 253.167 71.1979 253.625 70.3438C254.083 69.4896 254.312 68.5312 254.312 67.4688C254.312 66.2188 254.094 65.1354 253.656 64.2188C253.24 63.3021 252.573 62.5938 251.656 62.0938C250.76 61.5938 249.562 61.3438 248.062 61.3438H238.938L239 54.5312H250.156L252.531 57.2188C255.427 57.1562 257.74 57.625 259.469 58.625C261.219 59.6042 262.479 60.8958 263.25 62.5C264.021 64.1042 264.406 65.8021 264.406 67.5938C264.406 70.5521 263.771 73.0312 262.5 75.0312C261.229 77.0104 259.344 78.5 256.844 79.5C254.365 80.5 251.302 81 247.656 81Z" fill="white" />
    </g>
    <g filter="url(#filter1_d_114_41)">
        <path d="M88.1877 71.4856L96.2266 75.6634C97.2578 76.199 97.2578 77.728 96.2266 78.2636L60.7525 96.6936C60.3638 96.8951 59.9354 97 59.501 97C59.0666 97 58.6381 96.8951 58.2494 96.6936L22.7754 78.2636C22.5436 78.1423 22.3489 77.9565 22.2128 77.7269C22.0767 77.4974 22.0047 77.2331 22.0047 76.9635C22.0047 76.6939 22.0767 76.4296 22.2128 76.2001C22.3489 75.9706 22.5436 75.7848 22.7754 75.6634L30.8189 71.4856L55.7417 84.4329C58.1088 85.66 60.8978 85.66 63.2603 84.4329L88.183 71.4807L88.1877 71.4856ZM58.2494 22.3064C58.6381 22.1049 59.0666 22 59.501 22C59.9354 22 60.3638 22.1049 60.7525 22.3064L96.2266 40.7315C96.4581 40.8537 96.6526 41.04 96.7885 41.2699C96.9243 41.4998 96.9962 41.7643 96.9962 42.0341C96.9962 42.3038 96.9243 42.5683 96.7885 42.7982C96.6526 43.0281 96.4581 43.2145 96.2266 43.3366L60.7525 61.7569C60.3638 61.9584 59.9354 62.0632 59.501 62.0632C59.0666 62.0632 58.6381 61.9584 58.2494 61.7569L22.7754 43.3366C22.5424 43.2157 22.3465 43.0298 22.2095 42.7998C22.0725 42.5697 22 42.3046 22 42.0341C22 41.7636 22.0725 41.4984 22.2095 41.2683C22.3465 41.0383 22.5424 40.8524 22.7754 40.7315L58.2494 22.3064Z" fill="white" />
    </g>
    <g filter="url(#filter2_d_114_41)">
        <path d="M88.186 54.0196L96.2248 58.1974C97.2561 58.733 97.2561 60.2619 96.2248 60.7976L60.7508 79.2227C60.3621 79.4242 59.9336 79.5291 59.4992 79.5291C59.0648 79.5291 58.6364 79.4242 58.2477 79.2227L22.7736 60.7976C22.5419 60.6762 22.3471 60.4904 22.2111 60.2609C22.075 60.0313 22.0029 59.7671 22.0029 59.4975C22.0029 59.2279 22.075 58.9636 22.2111 58.7341C22.3471 58.5045 22.5419 58.3187 22.7736 58.1974L30.8172 54.0196L55.74 66.9669C58.1071 68.1939 60.8961 68.1939 63.2585 66.9669L88.1813 54.0196H88.186Z" fill="#6397C2" />
    </g>
    <defs>
        <filter id="filter0_d_114_41" x="116.438" y="34.875" width="148.969" height="47.75" filterUnits="userSpaceOnUse" color-interpolation-filters="sRGB">
            <feFlood flood-opacity="0" result="BackgroundImageFix" />
            <feColorMatrix in="SourceAlpha" type="matrix" values="0 0 0 0 0 0 0 0 0 0 0 0 0 0 0 0 0 0 127 0" result="hardAlpha" />
            <feOffset dx="1" dy="1" />
            <feComposite in2="hardAlpha" operator="out" />
            <feColorMatrix type="matrix" values="0 0 0 0 0 0 0 0 0 0 0 0 0 0 0 0 0 0 0.25 0" />
            <feBlend mode="normal" in2="BackgroundImageFix" result="effect1_dropShadow_114_41" />
            <feBlend mode="normal" in="SourceGraphic" in2="effect1_dropShadow_114_41" result="shape" />
        </filter>
        <filter id="filter1_d_114_41" x="22" y="22" width="76" height="76" filterUnits="userSpaceOnUse" color-interpolation-filters="sRGB">
            <feFlood flood-opacity="0" result="BackgroundImageFix" />
            <feColorMatrix in="SourceAlpha" type="matrix" values="0 0 0 0 0 0 0 0 0 0 0 0 0 0 0 0 0 0 127 0" result="hardAlpha" />
            <feOffset dx="1" dy="1" />
            <feComposite in2="hardAlpha" operator="out" />
            <feColorMatrix type="matrix" values="0 0 0 0 0 0 0 0 0 0 0 0 0 0 0 0 0 0 0.25 0" />
            <feBlend mode="normal" in2="BackgroundImageFix" result="effect1_dropShadow_114_41" />
            <feBlend mode="normal" in="SourceGraphic" in2="effect1_dropShadow_114_41" result="shape" />
        </filter>
        <filter id="filter2_d_114_41" x="22.0029" y="54.0196" width="75.9951" height="26.5095" filterUnits="userSpaceOnUse" color-interpolation-filters="sRGB">
            <feFlood flood-opacity="0" result="BackgroundImageFix" />
            <feColorMatrix in="SourceAlpha" type="matrix" values="0 0 0 0 0 0 0 0 0 0 0 0 0 0 0 0 0 0 127 0" result="hardAlpha" />
            <feOffset dx="1" dy="1" />
            <feComposite in2="hardAlpha" operator="out" />
            <feColorMatrix type="matrix" values="0 0 0 0 0 0 0 0 0 0 0 0 0 0 0 0 0 0 0.25 0" />
            <feBlend mode="normal" in2="BackgroundImageFix" result="effect1_dropShadow_114_41" />
            <feBlend mode="normal" in="SourceGraphic" in2="effect1_dropShadow_114_41" result="shape" />
        </filter>
    </defs>
</svg>