<svg width="270" height="120" viewBox="0 0 270 120" fill="none" xmlns="http://www.w3.org/2000/svg">
	<rect width="270" height="120" rx="20" fill="#0166A5"/>
	<path d="M138.688 57.25V59.2812C138.688 62.7396 138.208 65.8438 137.25 68.5938C136.312 71.3438 134.969 73.6875 133.219 75.625C131.49 77.5625 129.427 79.0521 127.031 80.0938C124.656 81.1146 122.021 81.625 119.125 81.625C116.229 81.625 113.583 81.1146 111.188 80.0938C108.792 79.0521 106.708 77.5625 104.938 75.625C103.188 73.6875 101.833 71.3438 100.875 68.5938C99.9167 65.8438 99.4375 62.7396 99.4375 59.2812V57.25C99.4375 53.7917 99.9167 50.6875 100.875 47.9375C101.833 45.1667 103.177 42.8125 104.906 40.875C106.656 38.9375 108.729 37.4583 111.125 36.4375C113.521 35.3958 116.167 34.875 119.062 34.875C121.958 34.875 124.604 35.3958 127 36.4375C129.396 37.4583 131.458 38.9375 133.188 40.875C134.938 42.8125 136.292 45.1667 137.25 47.9375C138.208 50.6875 138.688 53.7917 138.688 57.25ZM128.406 59.2812V57.1875C128.406 54.875 128.198 52.8333 127.781 51.0625C127.365 49.2708 126.76 47.7708 125.969 46.5625C125.177 45.3542 124.198 44.4479 123.031 43.8438C121.865 43.2188 120.542 42.9062 119.062 42.9062C117.521 42.9062 116.177 43.2188 115.031 43.8438C113.885 44.4479 112.917 45.3542 112.125 46.5625C111.354 47.7708 110.76 49.2708 110.344 51.0625C109.948 52.8333 109.75 54.875 109.75 57.1875V59.2812C109.75 61.5729 109.948 63.6146 110.344 65.4062C110.76 67.1771 111.365 68.6771 112.156 69.9062C112.948 71.1354 113.917 72.0625 115.062 72.6875C116.229 73.3125 117.583 73.625 119.125 73.625C120.604 73.625 121.917 73.3125 123.062 72.6875C124.229 72.0625 125.208 71.1354 126 69.9062C126.792 68.6771 127.385 67.1771 127.781 65.4062C128.198 63.6146 128.406 61.5729 128.406 59.2812ZM174.625 73.125V81H151.656V73.125H174.625ZM155.125 35.5V81H144.938V35.5H155.125ZM194 35.5V81H183.844V35.5H194ZM207.844 35.5V43.4062H170.281V35.5H207.844ZM231.062 61.3438H219.375L219.312 54.5312H228.969C230.677 54.5312 232.062 54.3229 233.125 53.9062C234.208 53.4896 235 52.8854 235.5 52.0938C236 51.2812 236.25 50.2812 236.25 49.0938C236.25 47.7396 236 46.6458 235.5 45.8125C235 44.9792 234.208 44.375 233.125 44C232.062 43.6042 230.688 43.4062 229 43.4062H223.062V81H212.875V35.5H229C231.729 35.5 234.167 35.75 236.312 36.25C238.458 36.75 240.281 37.5208 241.781 38.5625C243.302 39.6042 244.458 40.9062 245.25 42.4688C246.042 44.0312 246.438 45.875 246.438 48C246.438 49.8542 246.021 51.5833 245.188 53.1875C244.375 54.7917 243.062 56.0938 241.25 57.0938C239.438 58.0938 237.01 58.6354 233.969 58.7188L231.062 61.3438ZM230.656 81H216.781L220.469 73.125H230.656C232.219 73.125 233.49 72.875 234.469 72.375C235.448 71.875 236.167 71.1979 236.625 70.3438C237.083 69.4896 237.312 68.5312 237.312 67.4688C237.312 66.2188 237.094 65.1354 236.656 64.2188C236.24 63.3021 235.573 62.5938 234.656 62.0938C233.76 61.5938 232.562 61.3438 231.062 61.3438H221.938L222 54.5312H233.156L235.531 57.2188C238.427 57.1562 240.74 57.625 242.469 58.625C244.219 59.6042 245.479 60.8958 246.25 62.5C247.021 64.1042 247.406 65.8021 247.406 67.5938C247.406 70.5521 246.771 73.0312 245.5 75.0312C244.229 77.0104 242.344 78.5 239.844 79.5C237.365 80.5 234.302 81 230.656 81Z" fill="white"/>
	<path d="M80.3627 69.8875L87.3297 73.5083C88.2234 73.9725 88.2234 75.2976 87.3297 75.7618L56.5855 91.7345C56.2486 91.9091 55.8773 92 55.5008 92C55.1244 92 54.7531 91.9091 54.4162 91.7345L23.672 75.7618C23.4711 75.6566 23.3024 75.4956 23.1844 75.2967C23.0665 75.0977 23.004 74.8687 23.004 74.635C23.004 74.4014 23.0665 74.1724 23.1844 73.9734C23.3024 73.7745 23.4711 73.6135 23.672 73.5083L30.6431 69.8875L52.2428 81.1085C54.2943 82.172 56.7114 82.172 58.7589 81.1085L80.3586 69.8833L80.3627 69.8875ZM54.4162 27.2655C54.7531 27.0909 55.1244 27 55.5008 27C55.8773 27 56.2486 27.0909 56.5855 27.2655L87.3297 43.234C87.5304 43.3398 87.6989 43.5013 87.8167 43.7006C87.9344 43.8998 87.9967 44.1291 87.9967 44.3628C87.9967 44.5966 87.9344 44.8259 87.8167 45.0251C87.6989 45.2244 87.5304 45.3859 87.3297 45.4917L56.5855 61.456C56.2486 61.6306 55.8773 61.7215 55.5008 61.7215C55.1244 61.7215 54.7531 61.6306 54.4162 61.456L23.672 45.4917C23.4701 45.387 23.3003 45.2259 23.1816 45.0265C23.0629 44.8271 23 44.5973 23 44.3628C23 44.1284 23.0629 43.8986 23.1816 43.6992C23.3003 43.4998 23.4701 43.3387 23.672 43.234L54.4162 27.2655Z" fill="white"/>
	<path d="M80.3616 54.7503L87.3286 58.3711C88.2223 58.8353 88.2223 60.1603 87.3286 60.6245L56.5844 76.593C56.2475 76.7676 55.8762 76.8585 55.4997 76.8585C55.1233 76.8585 54.7519 76.7676 54.4151 76.593L23.6709 60.6245C23.47 60.5194 23.3012 60.3584 23.1833 60.1594C23.0654 59.9605 23.0029 59.7314 23.0029 59.4978C23.0029 59.2642 23.0654 59.0351 23.1833 58.8362C23.3012 58.6372 23.47 58.4762 23.6709 58.3711L30.6419 54.7503L52.2417 65.9713C54.2932 67.0347 56.7103 67.0347 58.7578 65.9713L80.3575 54.7503H80.3616Z" fill="#FBDD83"/>
</svg>
